<?xml version="1.0" standalone="no"?>
<!DOCTYPE svg PUBLIC "-//W3C//DTD SVG 20010904//EN"
 "http://www.w3.org/TR/2001/REC-SVG-20010904/DTD/svg10.dtd">
<svg version="1.0" xmlns="http://www.w3.org/2000/svg"
 width="1024.000000pt" height="1024.000000pt" viewBox="0 0 1024.000000 1024.000000"
 preserveAspectRatio="xMidYMid meet">

<g transform="translate(0.000000,1024.000000) scale(0.100000,-0.100000)"
fill="#000000" stroke="none">
<path d="M4365 9113 c-584 -76 -1108 -502 -1290 -1046 -54 -161 -75 -303 -75
-497 0 -257 32 -400 139 -625 133 -279 312 -488 556 -651 232 -154 424 -219
810 -274 409 -58 669 -138 854 -262 68 -46 231 -216 270 -281 76 -128 111
-253 112 -392 1 -124 -18 -209 -76 -332 -50 -107 -159 -270 -187 -279 -13 -4
-40 10 -86 44 -37 27 -128 91 -202 142 -74 51 -217 152 -318 223 -157 113
-182 134 -178 152 21 85 78 426 83 497 7 107 -10 160 -67 212 -78 70 -74 70
-803 62 -565 -6 -654 -9 -689 -23 -48 -19 -82 -63 -473 -622 -356 -508 -359
-513 -359 -638 0 -51 7 -75 38 -137 42 -86 125 -202 210 -293 40 -43 79 -73
124 -95 l67 -33 439 -3 439 -3 111 -88 c102 -81 443 -338 561 -423 70 -50 153
-95 211 -114 60 -20 406 -30 584 -16 63 5 128 5 143 1 15 -4 59 -31 96 -58 97
-72 127 -70 224 16 55 48 77 45 173 -28 62 -47 91 -49 130 -8 16 17 48 42 72
56 51 30 63 27 147 -42 77 -62 105 -61 181 5 31 28 65 50 74 50 18 0 73 -34
122 -75 41 -34 81 -40 125 -18 46 22 73 61 115 166 54 134 135 290 165 318 15
14 66 52 113 84 243 167 433 366 579 609 251 415 313 931 164 1361 -52 149
-95 237 -180 364 -99 148 -279 331 -412 420 -234 155 -406 210 -781 251 -209
23 -269 34 -455 82 -195 50 -326 112 -447 209 -119 95 -199 218 -228 350 -21
96 -8 267 28 375 65 195 172 374 297 498 78 78 149 124 241 158 82 31 270 33
327 4 46 -23 84 -76 92 -131 7 -44 3 -60 -159 -529 -88 -256 -97 -301 -76
-375 27 -94 185 -171 323 -157 95 10 149 51 181 138 8 24 36 102 62 173 83
234 178 408 281 516 110 116 198 158 377 184 120 17 159 30 200 71 87 86 97
229 23 331 -47 67 -115 106 -378 219 -275 118 -376 156 -499 187 -84 21 -102
21 -1150 23 -586 1 -1078 0 -1095 -3z m2495 -345 c51 -12 423 -163 458 -186
19 -12 22 -22 20 -56 l-3 -41 -65 3 c-117 5 -224 38 -489 150 -108 46 -131 63
-131 96 0 46 26 59 99 52 36 -4 86 -12 111 -18z m-1722 -122 c15 -8 38 -26 51
-40 43 -45 39 -94 -28 -371 -144 -595 -141 -585 -211 -632 l-33 -23 -676 0
-676 0 -50 24 c-68 31 -105 76 -105 127 0 56 187 796 212 841 23 40 54 65 97
78 14 5 333 9 709 9 568 1 688 -1 710 -13z m-683 -1288 c21 -25 85 -184 85
-212 0 -21 -34 -26 -173 -26 -162 0 -185 9 -221 81 -27 56 -48 143 -39 165 7
18 41 22 191 20 132 -1 134 -1 157 -28z m500 12 c74 -12 86 -25 122 -136 22
-67 25 -86 15 -96 -14 -14 -224 -25 -267 -14 -43 11 -93 64 -115 122 -20 54
-26 114 -13 127 10 10 190 8 258 -3z m-328 -445 c36 -27 84 -122 91 -180 l5
-45 -99 -2 c-157 -4 -210 -1 -242 16 -62 32 -137 198 -104 230 4 4 78 6 164 4
139 -3 160 -5 185 -23z m570 0 c35 -26 81 -119 89 -179 l7 -46 -171 0 c-202 0
-201 0 -251 117 -30 70 -38 112 -24 127 4 4 78 6 165 4 139 -3 160 -5 185 -23z
m-424 -397 c15 -6 39 -29 52 -53 30 -51 65 -149 65 -183 l0 -24 -162 3 c-200
5 -220 13 -257 104 -14 34 -25 82 -25 110 l-1 50 70 6 c90 7 222 1 258 -13z
m577 -3 c61 -35 136 -222 99 -246 -8 -5 -76 -9 -152 -9 -198 0 -205 4 -262
155 -30 80 -32 112 -7 119 9 2 78 4 152 3 114 -2 141 -5 170 -22z m1810 -218
c64 -26 86 -50 142 -162 111 -221 170 -445 139 -536 -15 -45 -105 -136 -146
-148 -46 -12 -1052 -3 -1088 11 -53 20 -72 67 -101 248 -14 90 -75 256 -153
422 -42 89 -45 99 -34 127 26 62 18 61 636 58 509 -2 564 -4 605 -20z m-2942
-673 c18 -5 15 -49 -5 -65 -9 -8 -41 -49 -70 -92 l-55 -77 -451 2 c-309 2
-451 6 -454 14 -3 10 54 92 134 191 l34 43 427 -6 c235 -3 433 -7 440 -10z
m358 -38 c16 -12 17 -19 8 -43 -15 -41 -195 -284 -364 -493 -195 -241 -290
-404 -331 -570 -36 -145 -14 -207 115 -336 44 -44 169 -146 276 -226 107 -80
234 -179 282 -220 47 -41 123 -94 167 -117 76 -41 95 -61 71 -76 -12 -7 -126
28 -185 58 -108 54 -675 510 -746 600 -57 72 -80 120 -90 195 -17 120 19 235
122 388 124 185 294 421 369 511 44 53 108 137 143 186 76 110 115 157 131
157 7 0 21 -6 32 -14z m2946 -266 c-5 -93 -21 -169 -67 -325 -24 -82 -46 -162
-49 -177 -6 -27 -49 -58 -81 -58 -22 0 -20 33 15 221 45 240 61 311 76 341 16
32 60 59 89 55 18 -2 20 -8 17 -57z m-594 -207 c195 -5 237 -9 254 -23 20 -16
20 -17 -26 -173 -63 -211 -86 -275 -247 -684 -77 -194 -169 -441 -205 -550
-36 -109 -71 -207 -76 -218 -17 -32 -50 -65 -66 -65 -9 0 -43 27 -78 60 -38
36 -71 60 -84 60 -14 0 -45 -23 -82 -60 -33 -33 -68 -60 -77 -60 -10 0 -50 29
-89 65 -40 36 -80 65 -89 65 -9 0 -45 -29 -79 -65 -60 -61 -65 -64 -92 -54
-17 6 -47 25 -68 43 -86 73 -108 73 -183 1 -66 -63 -112 -80 -130 -47 -18 34
-13 154 10 228 40 130 429 1091 540 1334 57 122 76 133 274 140 237 10 344 10
593 3z m-3138 -128 c0 -27 -69 -154 -90 -165 -11 -6 -58 -10 -108 -8 -86 3
-87 3 -90 30 -5 42 32 115 70 138 43 26 218 30 218 5z m1199 -440 c227 -186
415 -344 418 -351 3 -7 -17 -62 -45 -121 -27 -59 -55 -125 -61 -145 -15 -47
-24 -53 -56 -36 -34 18 -284 215 -588 463 -142 115 -281 226 -307 245 -27 19
-49 39 -50 45 0 17 244 246 260 242 8 -2 201 -156 429 -342z m-1584 96 c204
-6 210 -7 213 -27 2 -12 -4 -29 -13 -38 -15 -14 -68 -16 -511 -16 l-494 0 0
23 c0 42 20 56 85 60 99 6 496 5 720 -2z m1420 -806 c50 -36 107 -82 128 -101
35 -33 37 -39 37 -95 0 -41 -4 -59 -12 -59 -52 1 -242 141 -274 202 -25 48
-16 118 15 118 9 0 57 -29 106 -65z"/>
<path d="M4198 8472 l-428 -2 -5 -23 c-17 -80 -118 -499 -139 -577 -14 -52
-26 -98 -26 -103 0 -4 282 -6 627 -5 l627 3 59 245 c49 206 70 288 113 451 4
15 -15 17 -198 15 -112 0 -395 -2 -630 -4z"/>
<path d="M6166 6121 c48 -110 107 -290 122 -374 l18 -102 467 0 c257 -1 473 2
479 6 15 10 12 82 -8 149 -31 107 -123 306 -152 328 -13 10 -111 13 -475 11
-413 -2 -457 -4 -451 -18z"/>
<path d="M6565 4675 c-32 -31 -33 -73 -2 -83 12 -4 75 -8 140 -7 112 0 120 1
138 24 24 30 24 67 0 81 -11 5 -72 10 -136 10 -110 0 -117 -1 -140 -25z"/>
<path d="M6130 4677 c-32 -16 -48 -60 -30 -81 10 -13 39 -16 160 -16 130 0
149 2 163 18 23 26 21 58 -5 76 -29 20 -250 23 -288 3z"/>
<path d="M6027 4448 c-21 -17 -48 -83 -41 -102 3 -8 13 -17 21 -21 9 -3 178
-3 377 1 l360 7 22 24 c28 30 38 71 23 89 -16 19 -736 21 -762 2z"/>
<path d="M5921 4184 c-22 -28 -27 -60 -13 -82 7 -10 79 -13 333 -12 178 0 343
4 367 9 57 11 84 37 80 75 l-3 31 -372 3 -371 2 -21 -26z"/>
<path d="M1350 2479 c-120 -20 -219 -90 -267 -187 -24 -50 -28 -69 -28 -147 0
-105 20 -157 86 -223 55 -54 111 -83 259 -132 68 -22 139 -50 157 -61 89 -55
82 -176 -13 -215 -44 -19 -157 -18 -194 1 -37 19 -70 62 -70 92 l0 24 -122 -3
-123 -3 3 -35 c6 -77 33 -133 96 -196 70 -70 139 -101 251 -113 219 -24 405
66 466 228 31 83 24 205 -16 280 -51 92 -125 142 -295 196 -114 37 -202 79
-219 106 -18 30 -16 92 4 123 23 35 74 56 137 56 67 0 112 -26 129 -74 l13
-36 118 0 118 0 0 28 c0 92 -86 210 -188 255 -55 25 -166 48 -222 46 -14 -1
-50 -5 -80 -10z"/>
<path d="M5925 2484 c-100 -16 -181 -59 -243 -129 -53 -60 -77 -130 -75 -220
1 -88 27 -149 87 -209 56 -57 114 -86 272 -137 101 -34 134 -49 165 -79 35
-33 39 -42 39 -86 0 -58 -16 -85 -64 -108 -44 -21 -166 -22 -206 -1 -37 19
-70 62 -70 91 0 24 0 24 -121 24 l-122 0 6 -55 c16 -154 155 -274 339 -294
219 -23 383 50 460 207 29 59 33 76 33 147 -1 94 -25 158 -83 219 -56 58 -97
80 -243 131 -144 50 -213 85 -229 115 -17 31 -12 85 11 114 67 86 236 72 264
-22 l9 -32 118 0 118 0 0 30 c0 40 -31 120 -64 163 -35 46 -106 91 -174 111
-57 16 -178 27 -227 20z"/>
<path d="M1906 2445 c4 -8 63 -270 133 -582 l126 -568 119 -3 c66 -1 123 1
127 5 4 4 42 157 84 338 41 182 79 339 84 350 11 26 11 27 56 -165 76 -324
116 -486 125 -508 10 -22 13 -23 127 -20 l118 3 126 555 c70 305 130 568 133
583 l6 28 -127 -3 -127 -3 -9 -45 c-47 -254 -141 -717 -146 -723 -8 -8 -57
212 -123 550 l-43 223 -106 0 c-104 0 -107 -1 -113 -24 -3 -13 -37 -176 -76
-362 -38 -187 -74 -352 -78 -369 -9 -30 -9 -29 -20 20 -7 28 -16 73 -22 100
-35 187 -102 539 -111 583 l-10 52 -129 0 c-111 0 -129 -2 -124 -15z"/>
<path d="M3410 1875 l0 -585 125 0 125 0 0 585 0 585 -125 0 -125 0 0 -585z"/>
<path d="M3870 1875 l0 -585 125 0 125 0 0 230 0 230 188 0 187 0 0 110 0 110
-187 0 -188 0 0 135 0 135 224 0 225 0 3 110 3 110 -352 0 -353 0 0 -585z"/>
<path d="M4690 2350 l0 -110 140 0 140 0 2 -472 3 -473 123 -3 122 -3 0 476 0
475 145 0 145 0 0 110 0 110 -410 0 -410 0 0 -110z"/>
<path d="M6773 2237 c-39 -122 -121 -375 -181 -562 -60 -187 -113 -350 -117
-362 l-6 -23 129 0 129 0 34 118 34 117 189 0 190 0 31 -115 31 -115 133 -3
c116 -2 133 -1 128 13 -7 17 -212 654 -309 958 l-62 197 -141 0 -140 0 -72
-223z m265 -255 c29 -103 55 -197 59 -209 5 -23 5 -23 -117 -23 -107 0 -121 2
-116 16 3 9 30 103 59 210 28 106 54 194 57 194 3 0 29 -84 58 -188z"/>
<path d="M7630 1875 l0 -585 341 2 340 3 2 108 2 107 -212 0 -213 0 0 475 0
475 -130 0 -130 0 0 -585z"/>
<path d="M8457 1878 l3 -583 360 -3 360 -2 0 110 0 110 -235 0 -235 0 0 130 0
130 195 0 195 0 0 110 0 110 -195 0 -195 0 0 125 0 125 235 0 235 0 0 110 0
110 -362 0 -363 0 2 -582z"/>
</g>
</svg>
